<svg xmlns="http://www.w3.org/2000/svg" viewBox="0 0 32 32" fill="none">
  <rect width="32" height="32" rx="8" fill="#6366f1"/>
  <path d="M22.5 21.2c-.6.9-1.2 1.8-2.1 1.8-.9 0-1.2-.6-2.2-.6-1 0-1.3.6-2.2.6-.9 0-1.5-.9-2.1-1.8-1.8-2.7-3.2-7.7-1.9-11 1-1.7 2.7-2.8 4.6-2.8.8 0 1.7.6 2.2.6.5 0 1.5-.6 2.5-.6 1.1 0 2.1.6 2.9 1.5-2.5 1.4-2.1 5 .4 6.1-.2.5-1 1.1-1.9 1.1-.9 0-1.5-.5-2.2-.5-.7 0-1.3.5-2.2.5-.9 0-1.7-.6-1.9-1.1 1.5-.7 2.5-2.2 2.5-4 0-2.3-1.9-3.4-3.7-3.3.8-.9 2-1.5 3.1-1.5.1.8-.2 1.6-.7 2.2-.5.6-1.2 1.1-2 1-.1-.8.3-1.6.7-2.1z" fill="white"/>
</svg>
